Red.Dog.2011.1080p.BRRip.x264.aac.mp4.anoXmous

Format                           : MPEG-4
Format profile                   : Base Media
Codec ID                         : isom
File size                        : 895 MiB
Duration                         : 1h 32mn
Overall bit rate mode            : Variable
Overall bit rate                 : 1 355 Kbps


Video
ID                               : 1
Format                           : AVC
Format/Info                      : Advanced Video Codec
Format profile                   : High@L4.1
Format settings, CABAC           : Yes
Format settings, ReFrames        : 4 frames
Codec ID                         : avc1
Codec ID/Info                    : Advanced Video Coding
Duration                         : 1h 32mn
Bit rate                         : 1 284 Kbps
Maximum bit rate                 : 10.8 Mbps
Width                            : 1 904 pixels
Height                           : 816 pixels
Display aspect ratio             : 2.35:1
Frame rate mode                  : Constant
Frame rate                       : 23.976 fps
Color space                      : YUV
Chroma subsampling               : 4:2:0
Bit depth                        : 8 bits
Scan type                        : Progressive
Bits/(Pixel*Frame)               : 0.034
Stream size                      : 847 MiB (95%)
Writing library                  : x264 core 120 r2120 0c7dab9


Audio
ID                               : 2
Format                           : AAC
Format/Info                      : Advanced Audio Codec
Format profile                   : LC
Codec ID                         : 40
Duration                         : 1h 32mn
Bit rate mode                    : Variable
Bit rate                         : 69.4 Kbps
Maximum bit rate                 : 91.0 Kbps
Channel(s)                       : 2 channels
Channel positions                : Front: L R
Sampling rate                    : 48.0 KHz / 24.0 KHz
Compression mode                 : Lossy
Stream size                      : 45.8 MiB (5%)
Language                         : English

                              SUB:
Red.Dog.2011.1080p.BRRip.x264.aac.mp4.anoXmous_swe.srt

       http://www.imdb.com/title/tt0803061/

+++++++++ This work very fine with PSP and XBOX :) ++++++++++
